<?xml version="1.0" encoding="UTF-8" standalone="no"?>
<!DOCTYPE svg PUBLIC "-//W3C//DTD SVG 1.1//EN" "http://www.w3.org/Graphics/SVG/1.1/DTD/svg11.dtd">
<svg xmlns:xl="http://www.w3.org/1999/xlink" version="1.1" xmlns:dc="http://purl.org/dc/elements/1.1/" xmlns="http://www.w3.org/2000/svg" viewBox="372 237 350.79 133.5" width="350.79" height="133.5">
  <defs/>
  <g id="Canvas_1" stroke-opacity="1" fill-opacity="1" stroke-dasharray="none" stroke="none" fill="none">
    <title>Canvas 1</title>
    <rect fill="white" x="372" y="237" width="350.79" height="133.5"/>
    <g id="Canvas_1_Layer_1">
      <title>Layer 1</title>
      <g id="Group_6">
        <g id="Graphic_2">
          <ellipse cx="463" cy="304.25" rx="8.00001278321514" ry="8.25001318269062" fill="white"/>
          <ellipse cx="463" cy="304.25" rx="8.00001278321514" ry="8.25001318269062" stroke="black" stroke-linecap="round" stroke-linejoin="round" stroke-width="3"/>
        </g>
        <g id="Graphic_3">
          <path d="M 405.5 278.5 L 455 304.25 L 405.5 330 Z" fill="#ccc"/>
          <path d="M 405.5 278.5 L 455 304.25 L 405.5 330 Z" stroke="black" stroke-linecap="round" stroke-linejoin="round" stroke-width="3"/>
        </g>
      </g>
      <g id="Group_7">
        <g id="Graphic_4">
          <rect x="518.5" y="274" width="98.5" height="95" fill="#ffffc0"/>
          <rect x="518.5" y="274" width="98.5" height="95" stroke="black" stroke-linecap="round" stroke-linejoin="round" stroke-width="3"/>
          <text transform="translate(523.5 308.192)" fill="black">
            <tspan font-family="Helvetica Neue" font-size="22" fill="black" x="31.622" y="21">FF</tspan>
          </text>
        </g>
        <g id="Graphic_5">
          <path d="M 518.5 336 L 534.5 347.5 L 518.5 359 Z" fill="white"/>
          <path d="M 518.5 336 L 534.5 347.5 L 518.5 359 Z" stroke="black" stroke-linecap="round" stroke-linejoin="round" stroke-width="3"/>
        </g>
      </g>
      <g id="Line_8">
        <line x1="472.4999" y1="304.2072" x2="517" y2="304.00676" stroke="black" stroke-linecap="round" stroke-linejoin="round" stroke-width="2"/>
      </g>
      <g id="Line_9">
        <line x1="491.698" y1="348.02618" x2="517" y2="347.64363" stroke="black" stroke-linecap="round" stroke-linejoin="round" stroke-width="2"/>
      </g>
      <g id="Graphic_10">
        <text transform="translate(459.418 335)" fill="black">
          <tspan font-family="Helvetica Neue" font-style="italic" font-size="22" fill="black" x="0" y="21">clk</tspan>
        </text>
      </g>
      <g id="Line_11">
        <path d="M 618.5 298.77327 L 655 299 L 655 238 L 373 238 L 373 306 L 404 305.0524" stroke="black" stroke-linecap="round" stroke-linejoin="round" stroke-width="2"/>
      </g>
      <g id="Line_12">
        <line x1="655" y1="299" x2="681" y2="299.44798" stroke="black" stroke-linecap="round" stroke-linejoin="round" stroke-width="2"/>
      </g>
      <g id="Graphic_13">
        <ellipse cx="655.42995" cy="299.0074" rx="4.0019595197285" ry="4.25000679108309" fill="black"/>
        <ellipse cx="655.42995" cy="299.0074" rx="4.0019595197285" ry="4.25000679108309" stroke="black" stroke-linecap="round" stroke-linejoin="round" stroke-width="2"/>
      </g>
      <g id="Graphic_14">
        <text transform="translate(686 286.5)" fill="black">
          <tspan font-family="Helvetica Neue" font-style="italic" font-size="22" fill="black" x="4369838e-19" y="21">out</tspan>
        </text>
      </g>
    </g>
  </g>
</svg>
